<?xml version="1.0" encoding="UTF-8"?>
<svg width="134px" height="35px" viewBox="0 0 134 35" version="1.1" xmlns="http://www.w3.org/2000/svg" xmlns:xlink="http://www.w3.org/1999/xlink">
    <!-- Generator: Sketch 52.5 (67469) - http://www.bohemiancoding.com/sketch -->
    <title>Group</title>
    <desc>Created with Sketch.</desc>
    <defs>
        <path d="M25.1982513,3.37304813 L38.2429135,26.0036384 C39.8977584,28.8745533 38.9119388,32.5434065 36.0410239,34.1982513 C35.1297742,34.7235113 34.0964578,35 33.0446622,35 L6.95533779,35 C3.64162929,35 0.955337793,32.3137085 0.955337793,29 C0.955337793,27.9482044 1.23182645,26.914888 1.75708647,26.0036384 L14.8017487,3.37304813 C16.4565935,0.502133199 20.1254467,-0.483686389 22.9963616,1.17115846 C23.9113136,1.69855251 24.6708573,2.45809622 25.1982513,3.37304813 Z" id="path-1"></path>
    </defs>
    <g id="Website-made-with-Anima" stroke="none" stroke-width="1" fill="none" fill-rule="evenodd">
        <g id="Home-page" transform="translate(-103.000000, -4202.000000)">
            <g id="Group-9" transform="translate(0.000000, 4152.000000)">
                <g id="Group" transform="translate(103.000000, 50.000000)">
                    <g id="Polygon-Copy-+-Polygon-Copy-2-Mask">
                        <mask id="mask-2" fill="white">
                            <use xlink:href="#path-1"></use>
                        </mask>
                        <use id="Mask" fill="#6CBF7C" xlink:href="#path-1"></use>
                        <path d="M31.2562651,13.5483173 L38.4296183,25.97272 C40.0864935,28.8424636 39.1032694,32.5120132 36.2335258,34.1688884 C35.3214015,34.6955125 34.2867227,34.9727579 33.2334878,34.9727579 L8.49438876,34.9727579 L20.8640041,13.5483173 C22.5208793,10.6785737 26.1904289,9.69534955 29.0601725,11.3522248 C29.9722582,11.8788266 30.7296633,12.6362316 31.2562651,13.5483173 Z" id="Polygon-Copy" fill="#B2D34B" mask="url(#mask-2)"></path>
                        <path d="M36.6036862,23.0151642 L38.3112606,25.97272 C39.9681358,28.8424636 38.9849117,32.5120132 36.1151681,34.1688884 C35.2030438,34.6955125 34.168365,34.9727579 33.1151301,34.9727579 L19.3075888,34.9727579 L26.2114252,23.0151642 C27.8683004,20.1454206 31.53785,19.1621965 34.4075937,20.8190717 C35.3196793,21.3456735 36.0770844,22.1030786 36.6036862,23.0151642 Z" id="Polygon-Copy-2" fill="#F8E71C" mask="url(#mask-2)"></path>
                    </g>
                    <path d="M61.24,25 L58.504,25 L58.504,23.152 L58.456,23.152 C58.1999987,23.7280029 57.7560032,24.2359978 57.124,24.676 C56.4919968,25.1160022 55.7440043,25.336 54.88,25.336 C54.1279962,25.336 53.4840027,25.2040013 52.948,24.94 C52.4119973,24.6759987 51.9720017,24.3280022 51.628,23.896 C51.2839983,23.4639978 51.0320008,22.9680028 50.872,22.408 C50.7119992,21.8479972 50.632,21.272003 50.632,20.68 L50.632,13.48 L53.512,13.48 L53.512,19.864 C53.512,20.2000017 53.5359998,20.5519982 53.584,20.92 C53.6320002,21.2880018 53.7359992,21.6199985 53.896,21.916 C54.0560008,22.2120015 54.2759986,22.455999 54.556,22.648 C54.8360014,22.840001 55.2079977,22.936 55.672,22.936 C56.1200022,22.936 56.5159983,22.8440009 56.86,22.66 C57.2040017,22.4759991 57.4839989,22.2400014 57.7,21.952 C57.9160011,21.6639986 58.0799994,21.3320019 58.192,20.956 C58.3040006,20.5799981 58.36,20.2000019 58.36,19.816 L58.36,13.48 L61.24,13.48 L61.24,25 Z M67.456,13.48 L67.456,15.088 L67.528,15.088 C67.6720007,14.8639989 67.8599988,14.6360012 68.092,14.404 C68.3240012,14.1719988 68.6079983,13.9640009 68.944,13.78 C69.2800017,13.5959991 69.6599979,13.4440006 70.084,13.324 C70.5080021,13.2039994 70.9839974,13.144 71.512,13.144 C72.3280041,13.144 73.0799966,13.2999984 73.768,13.612 C74.4560034,13.9240016 75.0479975,14.3519973 75.544,14.896 C76.0400025,15.4400027 76.4239986,16.0799963 76.696,16.816 C76.9680014,17.5520037 77.104,18.3439958 77.104,19.192 C77.104,20.0400042 76.9720013,20.8359963 76.708,21.58 C76.4439987,22.3240037 76.0680024,22.9719972 75.58,23.524 C75.0919976,24.0760028 74.5000035,24.5159984 73.804,24.844 C73.1079965,25.1720016 72.3200044,25.336 71.44,25.336 C70.6239959,25.336 69.8760034,25.1680017 69.196,24.832 C68.5159966,24.4959983 67.9920018,24.0400029 67.624,23.464 L67.576,23.464 L67.576,30.76 L64.696,30.76 L64.696,13.48 L67.456,13.48 Z M74.176,19.192 C74.176,18.7439978 74.1080007,18.3000022 73.972,17.86 C73.8359993,17.4199978 73.6320014,17.0240018 73.36,16.672 C73.0879986,16.3199982 72.7440021,16.0360011 72.328,15.82 C71.9119979,15.6039989 71.4240028,15.496 70.864,15.496 C70.3359974,15.496 69.8640021,15.6079989 69.448,15.832 C69.0319979,16.0560011 68.6760015,16.3439982 68.38,16.696 C68.0839985,17.0480018 67.8600008,17.4479978 67.708,17.896 C67.5559992,18.3440022 67.48,18.7919978 67.48,19.24 C67.48,19.6880022 67.5559992,20.1319978 67.708,20.572 C67.8600008,21.0120022 68.0839985,21.4079982 68.38,21.76 C68.6760015,22.1120018 69.0319979,22.3959989 69.448,22.612 C69.8640021,22.8280011 70.3359974,22.936 70.864,22.936 C71.4240028,22.936 71.9119979,22.8240011 72.328,22.6 C72.7440021,22.3759989 73.0879986,22.0880018 73.36,21.736 C73.6320014,21.3839982 73.8359993,20.9840022 73.972,20.536 C74.1080007,20.0879978 74.176,19.6400022 74.176,19.192 Z M86.2,16.552 C85.9439987,16.2159983 85.5920022,15.9240012 85.144,15.676 C84.6959978,15.4279988 84.2080026,15.304 83.68,15.304 C83.2159977,15.304 82.7920019,15.399999 82.408,15.592 C82.0239981,15.784001 81.832,16.1039978 81.832,16.552 C81.832,17.0000022 82.0439979,17.3159991 82.468,17.5 C82.8920021,17.6840009 83.5119959,17.871999 84.328,18.064 C84.7600022,18.1600005 85.1959978,18.2879992 85.636,18.448 C86.0760022,18.6080008 86.4759982,18.8199987 86.836,19.084 C87.1960018,19.3480013 87.4879989,19.675998 87.712,20.068 C87.9360011,20.460002 88.048,20.9359972 88.048,21.496 C88.048,22.2000035 87.9160013,22.7959976 87.652,23.284 C87.3879987,23.7720024 87.0360022,24.1679985 86.596,24.472 C86.1559978,24.7760015 85.6440029,24.9959993 85.06,25.132 C84.4759971,25.2680007 83.8720031,25.336 83.248,25.336 C82.3519955,25.336 81.4800042,25.1720016 80.632,24.844 C79.7839958,24.5159984 79.0800028,24.048003 78.52,23.44 L80.416,21.664 C80.7360016,22.0800021 81.1519974,22.4239986 81.664,22.696 C82.1760026,22.9680014 82.7439969,23.104 83.368,23.104 C83.576001,23.104 83.7879989,23.0800002 84.004,23.032 C84.2200011,22.9839998 84.4199991,22.9080005 84.604,22.804 C84.7880009,22.6999995 84.9359994,22.5600009 85.048,22.384 C85.1600006,22.2079991 85.216,21.9920013 85.216,21.736 C85.216,21.2559976 84.9960022,20.912001 84.556,20.704 C84.1159978,20.495999 83.4560044,20.288001 82.576,20.08 C82.1439978,19.9839995 81.724002,19.8600008 81.316,19.708 C80.907998,19.5559992 80.5440016,19.3560012 80.224,19.108 C79.9039984,18.8599988 79.648001,18.5520018 79.456,18.184 C79.263999,17.8159982 79.168,17.3600027 79.168,16.816 C79.168,16.1759968 79.2999987,15.6240023 79.564,15.16 C79.8280013,14.6959977 80.1759978,14.3160015 80.608,14.02 C81.0400022,13.7239985 81.5279973,13.5040007 82.072,13.36 C82.6160027,13.2159993 83.1759971,13.144 83.752,13.144 C84.5840042,13.144 85.395996,13.2879986 86.188,13.576 C86.980004,13.8640014 87.6079977,14.303997 88.072,14.896 L86.2,16.552 Z M90.592,6.856 L93.472,6.856 L93.472,18.328 L93.544,18.328 L97.912,13.48 L101.608,13.48 L96.616,18.688 L101.92,25 L98.104,25 L93.544,19.096 L93.472,19.096 L93.472,25 L90.592,25 L90.592,6.856 Z M103.624,13.48 L106.504,13.48 L106.504,25 L103.624,25 L103.624,13.48 Z M103.216,9.568 C103.216,9.10399768 103.387998,8.70000172 103.732,8.356 C104.076002,8.01199828 104.511997,7.84 105.04,7.84 C105.568003,7.84 106.011998,8.00399836 106.372,8.332 C106.732002,8.66000164 106.912,9.07199752 106.912,9.568 C106.912,10.0640025 106.732002,10.4759984 106.372,10.804 C106.011998,11.1320016 105.568003,11.296 105.04,11.296 C104.511997,11.296 104.076002,11.1240017 103.732,10.78 C103.387998,10.4359983 103.216,10.0320023 103.216,9.568 Z M110.056,6.856 L112.936,6.856 L112.936,25 L110.056,25 L110.056,6.856 Z M116.488,6.856 L119.368,6.856 L119.368,25 L116.488,25 L116.488,6.856 Z M121.144,13.48 L124.336,13.48 L127.552,21.856 L127.6,21.856 L130.456,13.48 L133.456,13.48 L128.008,27.472 C127.799999,28.0000026 127.576001,28.467998 127.336,28.876 C127.095999,29.284002 126.808002,29.6279986 126.472,29.908 C126.135998,30.1880014 125.740002,30.3999993 125.284,30.544 C124.827998,30.6880007 124.280003,30.76 123.64,30.76 C123.399999,30.76 123.156001,30.7480001 122.908,30.724 C122.659999,30.6999999 122.408001,30.6560003 122.152,30.592 L122.392,28.096 C122.584001,28.1600003 122.771999,28.2039999 122.956,28.228 C123.140001,28.2520001 123.311999,28.264 123.472,28.264 C123.776002,28.264 124.031999,28.2280004 124.24,28.156 C124.448001,28.0839996 124.623999,27.9720008 124.768,27.82 C124.912001,27.6679992 125.039999,27.4800011 125.152,27.256 C125.264001,27.0319989 125.383999,26.7680015 125.512,26.464 L126.088,25 L121.144,13.48 Z" id="upskilly" fill="#FFFFFF"></path>
                </g>
            </g>
        </g>
    </g>
</svg>